<?xml version="1.0" standalone="no"?>
<!DOCTYPE svg PUBLIC "-//W3C//DTD SVG 20010904//EN"
 "http://www.w3.org/TR/2001/REC-SVG-20010904/DTD/svg10.dtd">
<svg version="1.0" xmlns="http://www.w3.org/2000/svg"
 width="500.000000pt" height="500.000000pt" viewBox="0 0 500.000000 500.000000"
 preserveAspectRatio="xMidYMid meet">
<metadata>
Created by potrace 1.14, written by Peter Selinger 2001-2017
</metadata>
<g transform="translate(0.000000,500.000000) scale(0.100000,-0.100000)"
fill="#000000" stroke="none">
<path d="M0 2500 l0 -2500 2500 0 2500 0 0 2500 0 2500 -2500 0 -2500 0 0
-2500z m1980 1365 l0 -45 -305 0 -305 0 0 -580 0 -580 323 0 c307 1 406 6 525
31 l52 10 0 601 0 600 378 -5 c413 -4 487 -12 657 -68 270 -90 397 -257 399
-524 0 -148 -30 -249 -104 -350 -71 -96 -153 -152 -285 -197 -44 -15 -73 -29
-65 -32 8 -2 33 -10 55 -17 79 -24 175 -80 239 -139 121 -114 175 -229 183
-395 17 -324 -131 -530 -443 -617 -75 -21 -100 -22 -546 -26 l-468 -3 0 541
c0 528 0 541 -19 535 -73 -23 -261 -35 -558 -35 l-323 0 0 -515 0 -515 -50 0
-50 0 0 1185 0 1185 355 0 355 0 0 -45z m-272 -2532 c-37 -4 -38 -5 -38 -44 0
-36 2 -39 28 -39 42 0 66 22 60 53 -3 15 -1 24 3 21 5 -3 9 -16 9 -29 0 -29
-34 -55 -72 -55 -24 0 -27 -4 -31 -37 -2 -21 -4 1 -5 50 l-2 87 43 -2 42 -1
-37 -4z m215 -6 c3 -8 -1 -14 -8 -14 -7 0 -11 6 -8 14 3 7 6 13 8 13 2 0 5 -6
8 -13z m200 -150 l42 -4 -47 -1 -48 -2 2 88 2 87 3 -82 4 -82 42 -4z m166 88
c0 -5 -8 6 -19 25 -11 19 -19 40 -19 45 0 6 8 -6 19 -25 11 -19 19 -39 19 -45z
m120 23 c-2 -52 -2 -53 -8 -13 -6 36 -7 38 -15 17 -4 -13 -10 -21 -13 -19 -5
6 25 67 32 67 3 0 4 -24 4 -52z m279 45 c-10 -2 -28 -2 -40 0 -13 2 -5 4 17 4
22 1 32 -1 23 -4z m309 -126 c-2 -23 -3 -1 -3 48 0 50 1 68 3 42 2 -26 2 -67
0 -90z m143 129 c0 -2 -7 -7 -16 -10 -8 -3 -12 -2 -9 4 6 10 25 14 25 6z m50
-11 c7 -9 10 -18 6 -22 -3 -3 -6 -1 -6 6 0 6 -10 16 -22 21 -16 6 -18 9 -7 9
9 1 22 -6 29 -14z m188 3 c7 -7 12 -16 12 -22 0 -5 -6 -2 -13 8 -10 14 -23 17
-45 14 -17 -2 -29 -1 -26 4 8 12 58 10 72 -4z m-648 -27 c0 -30 -34 -53 -72
-48 l-33 4 36 1 c42 2 64 23 56 52 -3 11 -1 18 4 14 5 -3 9 -13 9 -23z m430
-46 c57 -19 51 -85 -8 -85 -26 0 -62 25 -62 44 0 6 7 0 16 -12 24 -34 78 -28
82 10 3 22 -2 27 -28 33 -35 8 -60 30 -60 53 0 12 4 10 13 -7 6 -13 28 -30 47
-36z m172 5 c16 -6 18 -9 6 -9 -21 -1 -48 26 -47 47 0 12 3 10 9 -6 5 -12 20
-27 32 -32z m-1085 -57 c-2 -21 -4 -6 -4 32 0 39 2 55 4 38 2 -18 2 -50 0 -70z
m-362 47 c-6 -17 -2 -20 30 -20 33 0 36 2 31 23 -3 12 3 4 13 -18 11 -22 19
-47 19 -55 0 -8 -4 -2 -10 13 -10 27 -13 29 -59 25 -27 -1 -49 -2 -49 -1 0 7
24 53 27 53 3 0 1 -9 -2 -20z m845 -34 c0 -33 -19 -46 -64 -44 l-41 1 45 6
c43 6 45 8 45 38 0 17 3 29 7 26 5 -2 8 -14 8 -27z m657 8 c2 -13 1 -15 -4 -4
-3 8 -11 19 -17 23 -7 6 -6 7 4 4 8 -2 16 -12 17 -23z m-1036 -11 c-12 -20
-14 -14 -5 12 4 9 9 14 11 11 3 -2 0 -13 -6 -23z m-19 -23 c5 0 6 -5 2 -11 -7
-12 -34 26 -33 46 0 6 5 0 11 -12 6 -13 15 -23 20 -23z m1007 -10 c15 0 33 6
41 13 12 10 12 9 1 -5 -7 -10 -25 -18 -39 -18 -26 0 -62 25 -62 44 0 6 7 0 16
-12 9 -14 26 -22 43 -22z m-1488 -3 c-10 -9 -11 -8 -5 6 3 10 9 15 12 12 3 -3
0 -11 -7 -18z m1042 -4 c-13 -2 -33 -2 -45 0 -13 2 -3 4 22 4 25 0 35 -2 23
-4z"/>
<path d="M2470 3806 c0 -3 13 -12 28 -20 91 -47 194 -165 236 -272 67 -166 58
-423 -20 -576 l-24 -48 -54 0 -55 0 30 58 c46 90 62 172 63 307 0 172 -36 281
-126 378 -38 41 -148 117 -170 117 -4 0 -8 -220 -8 -490 l0 -490 283 0 c398 0
529 17 682 90 182 87 265 221 266 430 1 292 -139 431 -496 496 -90 16 -635 34
-635 20z"/>
<path d="M2370 2150 l0 -530 374 0 c397 0 460 5 578 50 182 68 275 190 300
392 30 237 -64 434 -251 527 -151 76 -264 91 -678 91 l-323 0 0 -530z"/>
</g>
</svg>
